<svg xmlns="http://www.w3.org/2000/svg" xmlns:xlink="http://www.w3.org/1999/xlink" version="1.1" x="0px" y="0px" viewBox="0 0 100 125" style="enable-background:new 0 0 100 100;" xml:space="preserve"><style type="text/css">
	.st0{fill-rule:evenodd;clip-rule:evenodd;}
</style><path class="st0" d="M91.9,91.9c-3.5,3.5-9.2,3.5-12.7,0L62.7,75.4C56.9,79,50.1,81,42.7,81C21.6,81,4.5,63.9,4.5,42.7  S21.6,4.5,42.7,4.5S81,21.6,81,42.7c0,7.3-2.1,14.1-5.6,20l16.5,16.5C95.4,82.7,95.4,88.4,91.9,91.9z M42.7,18  C29.1,18,18,29.1,18,42.7s11.1,24.8,24.8,24.8s24.8-11.1,24.8-24.8S56.4,18,42.7,18z"/><text x="0" y="115" fill="#000000" font-size="5px" font-weight="bold" font-family="'Helvetica Neue', Helvetica, Arial-Unicode, Arial, Sans-serif">Created by Rohith M S</text><text x="0" y="120" fill="#000000" font-size="5px" font-weight="bold" font-family="'Helvetica Neue', Helvetica, Arial-Unicode, Arial, Sans-serif">from the Noun Project</text></svg>