<?xml version="1.0" ?><svg style="enable-background:new 0 0 48 48;" version="1.1" viewBox="0 0 48 48" xml:space="preserve" xmlns="http://www.w3.org/2000/svg" xmlns:xlink="http://www.w3.org/1999/xlink"><g id="Padding__x26__Artboard"/><g id="Icons"><g><path d="M23.69998,38.4501c-0.96161,0.02454-1.78345,0.20386-2.47284,0.42676    c0.85504,0.65155,3.01477,1.86511,5.43311,0.00812C25.18246,38.40841,23.7225,38.45113,23.69998,38.4501z" style="fill:#303030;"/><rect height="1.87354" style="fill:#303030;" width="2.58057" x="19.45926" y="19.16445"/><rect height="1.87354" style="fill:#303030;" width="4.41064" x="31.80789" y="19.16445"/><rect height="1.87354" style="fill:#303030;" width="1.09131" x="17.76834" y="19.16445"/><rect height="1.87354" style="fill:#303030;" width="8.56885" x="22.63943" y="19.16445"/><path d="M21.57302,9.96621c0.16553-0.01172,0.31006,0.10791,0.32422,0.27344    c0.01416,0.16504-0.1084,0.31006-0.27344,0.32422c-6.90662,0.58911-7.3645,6.62024-7.37872,8.00098h21.97345v-0.6626    c0.00244-0.05371,0.16699-3.81641-2.58643-6.71777c-2.16992-2.28662-5.53271-3.44629-9.99365-3.44629    c-0.00684-0.00049-0.0127-0.00098-0.01904,0c-0.05225,0.00146-5.42139-0.16064-8.89111,3.1831    c-1.91309,1.84344-2.68483,4.41815-2.74391,7.64356h1.66426C13.68472,17.07949,14.26242,10.58956,21.57302,9.96621z     M23.52664,9.6542h1.86621c0.16553,0,0.2998,0.13428,0.2998,0.2998s-0.13428,0.2998-0.2998,0.2998h-1.86621    c-0.16553,0-0.2998-0.13428-0.2998-0.2998S23.36111,9.6542,23.52664,9.6542z" style="fill:#303030;"/><path d="M26.55935,24.63369c-2.5249-1.88477-4.99951,0.1123-5.02344,0.13232    c-1.22119,1.28418-4.20068,1.4458-4.32715,1.45215c-1.29504,0.05627-2.35095-0.58398-3.16852-1.41254    c-0.34967,0.35034-0.97565,1.14801-0.49603,2.01752l4.43262,6.73633c0.03516,0.05371,0.08936,0.08838,0.15186,0.09766    c0.03271,0.00391,0.1001,0.00684,0.1626-0.04541c0.90771-0.75195,3.28516-2.51123,5.87354-2.45849    c0.10254-0.00146,2.5918-0.01709,5.42969,2.44092c0.05176,0.04443,0.11768,0.06738,0.18506,0.05713    c0.04199-0.00537,0.10107-0.02539,0.14453-0.08838l4.39014-6.43017c0.01917-0.03552,0.67175-1.23956-0.35754-2.38367    l-0.39343,0.53601c-0.68115,0.80273-1.55225,1.08838-2.44629,1.08838C28.97342,26.37344,26.69363,24.73184,26.55935,24.63369z" style="fill:#303030;"/><path d="M12.68246,21.6376c0.01339,0,0.08007,0.17492,0.08904,0.19399    c0.03582,0.07611,0.07248,0.15181,0.10995,0.22712c0.08785,0.17655,0.18013,0.3509,0.2769,0.52272    c0.23102,0.41019,0.48745,0.80694,0.77581,1.17929c0.31087,0.4014,0.66026,0.77701,1.06041,1.09093    c0.39474,0.30967,0.84284,0.55833,1.3313,0.68238c0.65432,0.16617,1.34884,0.06051,2.00386-0.05284    c0.69856-0.12088,1.40821-0.29562,2.04362-0.61799c0.14238-0.07224,0.28082-0.15276,0.41156-0.24451    c0.12485-0.08762,0.22675-0.19445,0.34278-0.29114c0.05469-0.04834,2.89355-2.33398,5.78809-0.17676    c0.03955,0.03027,4.23486,3.05127,6.17725,0.76221l2.4035-3.27539C35.49655,21.6376,12.68475,21.6376,12.68246,21.6376z" style="fill:#303030;"/><rect height="1.87354" style="fill:#303030;" width="5.18434" x="11.98439" y="19.16445"/><circle cx="31.50821" cy="37.27419" r="0.98853" style="fill:#303030;"/><path d="M36.39987,21.6376h-0.15912l-1.91998,2.61548c1.16425,1.198,0.84637,2.60883,0.49982,3.20044    l-4.40137,6.44775c-0.12988,0.18994-0.33496,0.31543-0.56299,0.34521c-0.23535,0.02734-0.47363-0.04297-0.6543-0.19873    c-2.65576-2.30078-5.00391-2.30566-5.03613-2.29492c-0.02539,0-0.05078-0.00049-0.07568-0.00049    c-2.35791,0-4.56836,1.61914-5.41602,2.32129c-0.14502,0.12061-0.32812,0.18555-0.51514,0.18555    c-0.03955,0-0.0791-0.00293-0.11865-0.00879c-0.23047-0.03418-0.43604-0.16553-0.56445-0.36084l-4.44482-6.75635    c-0.62372-1.12891,0.0274-2.20715,0.60431-2.77545c-0.88629-1.06116-1.42072-2.258-1.60797-2.72015    c0,0-4.07428,3.65814-2.47192,8.04248l5.11747,9.3903c0.08248,0.15134,0.18771,0.29081,0.32055,0.40062    c0.48087,0.39752,1.77519,1.17657,3.66697,0.02793c0.33125-0.17324,1.89258-1.56885,5.02051-1.64844    c0.09473-0.00262,1.89899-0.05682,3.60315,0.61554c0.09497,0.02265,0.28967,0.12032,0.31973,0.13399    c0.39739,0.18077,0.78308,0.40363,1.13278,0.68162c0.18399,0.14625,0.43201,0.24777,0.64128,0.34942    c0.47799,0.23217,0.98051,0.42443,1.5008,0.5367c1.01343,0.21868,2.16587,0.06517,2.69461-0.93708    c0.0476-0.075,1.53507-2.90943,1.82155-3.45237c0.5977-1.13276,1.1954-2.26552,1.79311-3.39828    c0.35815-0.67878,0.71631-1.35755,1.07447-2.03633c0.0137-0.02597,0.03246-0.05292,0.04253-0.08061    C38.38546,30.07339,40.45315,25.11746,36.39987,21.6376z M15.53836,34.84072c-0.0498,0.03174-0.10547,0.04639-0.16016,0.04639    c-0.09961,0-0.19678-0.04932-0.25391-0.13916l-3.5459-5.59863c-0.08887-0.14014-0.04688-0.3252,0.09277-0.41406    c0.14062-0.08984,0.32568-0.0459,0.41406,0.09277l3.5459,5.59863C15.72,34.5668,15.67801,34.75185,15.53836,34.84072z     M31.50808,38.86221c-0.87549,0-1.58789-0.7124-1.58789-1.58789c0-0.87598,0.7124-1.58838,1.58789-1.58838    c0.87598,0,1.58838,0.7124,1.58838,1.58838C33.09646,38.1498,32.38406,38.86221,31.50808,38.86221z M34.36648,32.23916    l-0.55957,1.05762c-0.05371,0.10205-0.15771,0.16016-0.26562,0.16016c-0.04688,0-0.09521-0.01123-0.13965-0.03516    c-0.14648-0.07764-0.20264-0.25879-0.125-0.40527l0.55957-1.05762c0.07715-0.14648,0.25879-0.2041,0.40527-0.125    C34.38797,31.91152,34.44412,32.09267,34.36648,32.23916z M36.77908,28.1415l-1.67334,2.94629    c-0.05518,0.09766-0.15674,0.15234-0.26123,0.15234c-0.0498,0-0.10107-0.0127-0.14746-0.03955    c-0.14404-0.08154-0.19482-0.26465-0.11279-0.40869l1.67334-2.94629c0.08154-0.14453,0.26514-0.1958,0.40869-0.11279    C36.81033,27.81436,36.86111,27.99746,36.77908,28.1415z" style="fill:#303030;"/></g></g></svg>