<?xml version="1.0" ?><svg enable-background="new 0 0 24 24" id="Layer_1" version="1.1" viewBox="0 0 24 24" xml:space="preserve" xmlns="http://www.w3.org/2000/svg" xmlns:xlink="http://www.w3.org/1999/xlink"><g><circle cx="10.5" cy="6.5" fill="#303C42" r="1.5"/><path d="M20.5,11.5c0.2763672,0,0.5-0.2236328,0.5-0.5V9h1.5C22.7763672,9,23,8.7763672,23,8.5v-2   C23,6.2236328,22.7763672,6,22.5,6H20V4h0.7265625c0.206543,0,0.3916016-0.1269531,0.4663086-0.3198242   c0.074707-0.1923828,0.0229492-0.4111328-0.1298828-0.5498047C18.84375,1.1118164,15.9804688,0,13,0C6.3833008,0,1,5.3833008,1,12   s5.3833008,12,12,12c2.9804688,0,5.84375-1.1118164,8.0629883-3.1303711   c0.152832-0.1386719,0.2045898-0.3574219,0.1298828-0.5498047C21.1181641,20.1269531,20.9331055,20,20.7265625,20H20v-1h2.5   c0.2763672,0,0.5-0.2236328,0.5-0.5v-3c0-0.2763672-0.2236328-0.5-0.5-0.5H19v-2.5H2.0253296   C2.0177612,12.3330688,2,12.1687622,2,12s0.0177612-0.3330688,0.0253296-0.5H20.5z M16,6h2c0.2763672,0,0.5,0.2236328,0.5,0.5   S18.2763672,7,18,7h-2c-0.2763672,0-0.5-0.2236328-0.5-0.5S15.7236328,6,16,6z M10.5,3C12.4296875,3,14,4.5703125,14,6.5   S12.4296875,10,10.5,10S7,8.4296875,7,6.5S8.5703125,3,10.5,3z M4.5,6h1C5.7763672,6,6,6.2236328,6,6.5S5.7763672,7,5.5,7h-1   C4.2236328,7,4,6.7763672,4,6.5S4.2236328,6,4.5,6z M15.5,15H17c0.2763672,0,0.5,0.2236328,0.5,0.5S17.2763672,16,17,16h-1.5   c-0.2763672,0-0.5-0.2236328-0.5-0.5S15.2236328,15,15.5,15z M6.5,18h-2C4.2236328,18,4,17.7763672,4,17.5S4.2236328,17,4.5,17h2   C6.7763672,17,7,17.2236328,7,17.5S6.7763672,18,6.5,18z M4,14h4.5C8.7763672,14,9,14.2236328,9,14.5S8.7763672,15,8.5,15H4   c-0.2763672,0-0.5-0.2236328-0.5-0.5S3.7236328,14,4,14z" fill="#303C42"/></g><g/><g/><g/><g/><g/><g/><g/><g/><g/><g/><g/><g/><g/><g/><g/></svg>