<?xml version="1.0" ?><svg enable-background="new 0 0 24 24" id="Layer_1" version="1.1" viewBox="0 0 24 24" xml:space="preserve" xmlns="http://www.w3.org/2000/svg" xmlns:xlink="http://www.w3.org/1999/xlink"><g><circle cx="12" cy="6.5" fill="#303C42" r="1.5"/><path d="M12,0C5.3833008,0,0,5.3833008,0,12s5.3833008,12,12,12s12-5.3833008,12-12S18.6166992,0,12,0z M23,12   c0,0.1687622-0.0177612,0.3330688-0.0253296,0.5H1.0253296C1.0177612,12.3330688,1,12.1687622,1,12   s0.0177612-0.3330688,0.0253296-0.5h21.9493408C22.9822388,11.6669312,23,11.8312378,23,12z M2.5057983,17.5286865   C2.505188,17.5186768,2.5,17.5101929,2.5,17.5C2.5,17.2236328,2.7236328,17,3,17h2.5C5.7763672,17,6,17.2236328,6,17.5   S5.7763672,18,5.5,18H3c-0.0961914,0-0.1807861-0.0343018-0.256958-0.0812378   C2.6608887,17.7907715,2.5827026,17.6602173,2.5057983,17.5286865z M2,14.5C2,14.2236328,2.2236328,14,2.5,14h5   C7.7763672,14,8,14.2236328,8,14.5S7.7763672,15,7.5,15h-5C2.2236328,15,2,14.7763672,2,14.5z M14,16.5   c0-0.2763672,0.2236328-0.5,0.5-0.5H20c0.2763672,0,0.5,0.2236328,0.5,0.5S20.2763672,17,20,17h-5.5   C14.2236328,17,14,16.7763672,14,16.5z M19.5340576,19.9931641C19.5222168,19.9940186,19.512085,20,19.5,20h-4   c-0.2763672,0-0.5-0.2236328-0.5-0.5s0.2236328-0.5,0.5-0.5h4c0.2763672,0,0.5,0.2236328,0.5,0.5   c0,0.012085-0.0059814,0.0222168-0.0068359,0.0340576C19.8444824,19.6916504,19.6916504,19.8444824,19.5340576,19.9931641z    M19.9931641,4.4659424C19.9940186,4.4777832,20,4.487915,20,4.5C20,4.7763672,19.7763672,5,19.5,5h-1   C18.2236328,5,18,4.7763672,18,4.5S18.2236328,4,18.5,4h1c0.012085,0,0.0222168,0.0059814,0.0340576,0.0068359   C19.6916504,4.1555176,19.8444824,4.3083496,19.9931641,4.4659424z M21.9807129,7.4041748   C21.9871826,7.4362793,22,7.4660034,22,7.5C22,7.7763672,21.7763672,8,21.5,8h-3C18.2236328,8,18,7.7763672,18,7.5   S18.2236328,7,18.5,7h3c0.1442261,0,0.2718506,0.0627441,0.3630371,0.1602783   C21.9029541,7.2412109,21.9428101,7.3221436,21.9807129,7.4041748z M7,6.5C7,6.7763672,6.7763672,7,6.5,7h-3   C3.2236328,7,3,6.7763672,3,6.5S3.2236328,6,3.5,6h3C6.7763672,6,7,6.2236328,7,6.5z M12,3c1.9296875,0,3.5,1.5703125,3.5,3.5   S13.9296875,10,12,10S8.5,8.4296875,8.5,6.5S10.0703125,3,12,3z" fill="#303C42"/></g><g/><g/><g/><g/><g/><g/><g/><g/><g/><g/><g/><g/><g/><g/><g/></svg>